:FULLY-SPECIFIED
:FORCE-ALL-JOINTS-BE-3DOF
:DEGREES
1121
root 0.913765 14.4975 -28.1191 363.183 1.52185 362.589
lfemur -31.1197 10.8587 -23.4772
ltibia 70.0486 0 0
lfoot -24.9245 28.5835 0
ltoes -14.2033 0 0
rfemur -44.9154 -12.2093 12.9226
rtibia 88.4325 0 0
rfoot -5.60127 -2.72556 0
rtoes -11.5489 0 0
lowerback 14.1138 1.31174 -9.59568
upperback -0.798166 0.253824 1.17392
thorax -8.87151 0.613453 6.70946
lowerneck -4.70531 -1.97403 -4.53146
upperneck 4.0414 -2.87271 4.50722
head 2.70666 -1.39777 1.87388
lclavicle -3.22183e-14 -4.1308e-15 0
lhumerus 32.3461 -10.5946 63.287
lradius 89.5792 0 0
lwrist 37.7098 0 0
lhand -27.3704 28.832 0
lfingers 7.12502 0 0
lthumb -0.781083 58.4997 0
rclavicle -3.22183e-14 -4.1308e-15 0
rhumerus -13.7654 12.2102 -77.5132
rradius 87.9781 0 0
rwrist -28.2181 0 0
rhand -25.7711 -47.2512 0
rfingers 7.12502 0 0
rthumb 0.768497 -77.0181 0
1122
root 0.881864 14.4935 -27.9232 362.907 2.48588 362.685
lfemur -29.851 10.6463 -23.1551
ltibia 69.5452 0 0
lfoot -25.1065 28.7995 0
ltoes -14.2255 0 0
rfemur -45.0083 -12.2382 12.566
rtibia 87.2819 0 0
rfoot -5.26482 -2.39365 0
rtoes -11.2399 0 0
lowerback 14.0701 1.39661 -9.65625
upperback -0.770193 0.355708 1.08025
thorax -8.83385 0.659949 6.61897
lowerneck -4.56279 -2.33832 -4.85757
upperneck 4.17495 -3.37571 4.77633
head 2.77575 -1.64769 1.97999
lclavicle -2.90274e-14 -3.5005e-15 0
lhumerus 28.7511 -10.6883 64.812
lradius 90.2084 0 0
lwrist 38.2647 0 0
lhand -26.7526 28.1329 0
lfingers 7.12502 0 0
lthumb -0.184798 57.7897 0
rclavicle -2.90274e-14 -3.5005e-15 0
rhumerus -10.9813 11.4245 -75.9028
rradius 88.0698 0 0
rwrist -26.6233 0 0
rhand -26.2829 -47.0541 0
rfingers 7.12502 0 0
rthumb 0.274461 -76.8139 0
1123
root 0.849964 14.4894 -27.7272 362.631 3.4499 362.781
lfemur -28.5823 10.4338 -22.833
ltibia 69.0417 0 0
lfoot -25.2885 29.0155 0
ltoes -14.2476 0 0
rfemur -45.1011 -12.2671 12.2094
rtibia 86.1314 0 0
rfoot -4.92837 -2.06174 0
rtoes -10.9308 0 0
lowerback 14.0264 1.48149 -9.71683
upperback -0.742219 0.457592 0.986577
thorax -8.79619 0.706446 6.52847
lowerneck -4.42026 -2.70261 -5.18369
upperneck 4.30849 -3.8787 5.04544
head 2.84484 -1.89762 2.08609
lclavicle -2.58366e-14 -2.87021e-15 0
lhumerus 25.156 -10.782 66.337
lradius 90.8377 0 0
lwrist 38.8195 0 0
lhand -26.1348 27.4337 0
lfingers 7.12502 0 0
lthumb 0.411487 57.0798 0
rclavicle -2.58366e-14 -2.87021e-15 0
rhumerus -8.19727 10.6388 -74.2923
rradius 88.1614 0 0
rwrist -25.0285 0 0
rhand -26.7946 -46.8569 0
rfingers 7.12502 0 0
rthumb -0.219574 -76.6098 0
1124
root 0.818064 14.4854 -27.5313 362.355 4.41393 362.878
lfemur -27.3137 10.2213 -22.5109
ltibia 68.5383 0 0
lfoot -25.4705 29.2315 0
ltoes -14.2698 0 0
rfemur -45.194 -12.2961 11.8528
rtibia 84.9808 0 0
rfoot -4.59193 -1.72984 0
rtoes -10.6218 0 0
lowerback 13.9827 1.56637 -9.7774
upperback -0.714246 0.559476 0.892908
thorax -8.75852 0.752943 6.43798
lowerneck -4.27774 -3.0669 -5.5098
upperneck 4.44204 -4.3817 5.31454
head 2.91392 -2.14754 2.19219
lclavicle -2.26457e-14 -2.23992e-15 0
lhumerus 21.5609 -10.8757 67.8619
lradius 91.4669 0 0
lwrist 39.3744 0 0
lhand -25.5169 26.7346 0
lfingers 7.12502 0 0
lthumb 1.00777 56.3699 0
rclavicle -2.26457e-14 -2.23992e-15 0
rhumerus -5.41322 9.85301 -72.6818
rradius 88.2531 0 0
rwrist -23.4337 0 0
rhand -27.3064 -46.6597 0
rfingers 7.12502 0 0
rthumb -0.71361 -76.4056 0
1125
root 0.786163 14.4814 -27.3354 362.079 5.37796 362.974
lfemur -26.045 10.0088 -22.1888
ltibia 68.0349 0 0
lfoot -25.6525 29.4475 0
ltoes -14.2919 0 0
rfemur -45.2868 -12.325 11.4963
rtibia 83.8302 0 0
rfoot -4.25548 -1.39793 0
rtoes -10.3127 0 0
lowerback 13.939 1.65125 -9.83798
upperback -0.686273 0.66136 0.799238
thorax -8.72086 0.799439 6.34748
lowerneck -4.13521 -3.43119 -5.83592
upperneck 4.57559 -4.88469 5.58365
head 2.98301 -2.39746 2.2983
lclavicle -1.94548e-14 -1.60962e-15 0
lhumerus 17.9659 -10.9694 69.3869
lradius 92.0961 0 0
lwrist 39.9292 0 0
lhand -24.8991 26.0354 0
lfingers 7.12502 0 0
lthumb 1.60406 55.6599 0
rclavicle -1.94548e-14 -1.60962e-15 0
rhumerus -2.62917 9.06728 -71.0714
rradius 88.3447 0 0
rwrist -21.8389 0 0
rhand -27.8182 -46.4626 0
rfingers 7.12502 0 0
rthumb -1.20765 -76.2014 0
1126
root 0.754263 14.4773 -27.1395 361.803 6.34198 363.07
lfemur -24.7764 9.79629 -21.8667
ltibia 67.5314 0 0
lfoot -25.8344 29.6635 0
ltoes -14.3141 0 0
rfemur -45.3797 -12.3539 11.1397
rtibia 82.6796 0 0
rfoot -3.91904 -1.06602 0
rtoes -10.0037 0 0
lowerback 13.8953 1.73612 -9.89856
upperback -0.658299 0.763245 0.705569
thorax -8.68319 0.845936 6.25698
lowerneck -3.99268 -3.79547 -6.16204
upperneck 4.70913 -5.38769 5.85275
head 3.0521 -2.64738 2.4044
lclavicle -1.6264e-14 -9.79332e-16 0
lhumerus 14.3708 -11.0631 70.9118
lradius 92.7254 0 0
lwrist 40.4841 0 0
lhand -24.2813 25.3362 0
lfingers 7.12502 0 0
lthumb 2.20034 54.95 0
rclavicle -1.6264e-14 -9.79332e-16 0
rhumerus 0.154878 8.28154 -69.4609
rradius 88.4364 0 0
rwrist -20.2441 0 0
rhand -28.3299 -46.2654 0
rfingers 7.12502 0 0
rthumb -1.70168 -75.9973 0
1127
root 0.722362 14.4733 -26.9436 361.527 7.30601 363.166
lfemur -23.5077 9.5838 -21.5446
ltibia 67.028 0 0
lfoot -26.0164 29.8795 0
ltoes -14.3362 0 0
rfemur -45.4726 -12.3828 10.7831
rtibia 81.5291 0 0
rfoot -3.58259 -0.734116 0
rtoes -9.69463 0 0
lowerback 13.8516 1.821 -9.95913
upperback -0.630326 0.865129 0.611899
thorax -8.64553 0.892433 6.16649
lowerneck -3.85016 -4.15976 -6.48815
upperneck 4.84268 -5.89069 6.12186
head 3.12119 -2.89731 2.5105
lclavicle -1.30731e-14 -3.49039e-16 0
lhumerus 10.7757 -11.1568 72.4368
lradius 93.3546 0 0
lwrist 41.039 0 0
lhand -23.6635 24.6371 0
lfingers 7.12502 0 0
lthumb 2.79663 54.2401 0
rclavicle -1.30731e-14 -3.49039e-16 0
rhumerus 2.93893 7.4958 -67.8504
rradius 88.5281 0 0
rwrist -18.6493 0 0
rhand -28.8417 -46.0682 0
rfingers 7.12502 0 0
rthumb -2.19572 -75.7931 0
1128
root 0.690462 14.4693 -26.7477 361.251 8.27004 363.262
lfemur -22.239 9.37131 -21.2225
ltibia 66.5245 0 0
lfoot -26.1984 30.0955 0
ltoes -14.3584 0 0
rfemur -45.5654 -12.4117 10.4266
rtibia 80.3785 0 0
rfoot -3.24614 -0.402209 0
rtoes -9.38558 0 0
lowerback 13.8079 1.90588 -10.0197
upperback -0.602353 0.967013 0.51823
thorax -8.60787 0.938929 6.07599
lowerneck -3.70763 -4.52405 -6.81427
upperneck 4.97623 -6.39368 6.39097
head 3.19028 -3.14723 2.6166
lclavicle -9.88228e-15 2.81254e-16 0
lhumerus 7.18064 -11.2505 73.9618
lradius 93.9839 0 0
lwrist 41.5938 0 0
lhand -23.0457 23.9379 0
lfingers 7.12502 0 0
lthumb 3.39291 53.5301 0
rclavicle -9.88228e-15 2.81254e-16 0
rhumerus 5.72298 6.71007 -66.2399
rradius 88.6197 0 0
rwrist -17.0545 0 0
rhand -29.3534 -45.8711 0
rfingers 7.12502 0 0
rthumb -2.68975 -75.5889 0
1129
root 0.658561 14.4652 -26.5517 360.974 9.23406 363.359
lfemur -20.9704 9.15883 -20.9004
ltibia 66.0211 0 0
lfoot -26.3804 30.3116 0
ltoes -14.3805 0 0
rfemur -45.6583 -12.4407 10.07
rtibia 79.2279 0 0
rfoot -2.9097 -0.0703015 0
rtoes -9.07653 0 0
lowerback 13.7643 1.99076 -10.0803
upperback -0.574379 1.0689 0.42456
thorax -8.5702 0.985426 5.9855
lowerneck -3.56511 -4.88834 -7.14038
upperneck 5.10977 -6.89668 6.66007
head 3.25937 -3.39715 2.72271
lclavicle -6.69142e-15 9.11546e-16 0
lhumerus 3.58556 -11.3442 75.4867
lradius 94.6131 0 0
lwrist 42.1487 0 0
lhand -22.4278 23.2387 0
lfingers 7.12502 0 0
lthumb 3.9892 52.8202 0
rclavicle -6.69142e-15 9.11546e-16 0
rhumerus 8.50702 5.92433 -64.6295
rradius 88.7114 0 0
rwrist -15.4598 0 0
rhand -29.8652 -45.6739 0
rfingers 7.12502 0 0
rthumb -3.18379 -75.3848 0
